<?xml version="1.0" encoding="UTF-8"?>
<svg width="100mm" height="100mm" version="1.1" viewBox="0 0 100.001 100" xmlns="http://www.w3.org/2000/svg" xmlns:cc="http://creativecommons.org/ns#" xmlns:dc="http://purl.org/dc/elements/1.1/" xmlns:rdf="http://www.w3.org/1999/02/22-rdf-syntax-ns#" xmlns:xlink="http://www.w3.org/1999/xlink">
<title>Negareh Emoji Library Logo</title>
<defs>
<polygon id="d" points="1 1 2 1 1 2"/>
<polygon id="c" points="-1 -1 -2 -1 -1 -2"/>
</defs>
<metadata>
<rdf:RDF>
<cc:Work rdf:about="">
<dc:format>image/svg+xml</dc:format>
<dc:type rdf:resource="http://purl.org/dc/dcmitype/StillImage"/>
<dc:title>Negareh Emoji Library Logo</dc:title>
<cc:license rdf:resource="http://creativecommons.org/licenses/by-nc-sa/4.0/"/>
<dc:date>2019/11/27</dc:date>
<dc:creator>
<cc:Agent>
<dc:title>Mohammad Mahdi Baghbani Pourvahid</dc:title>
</cc:Agent>
</dc:creator>
<dc:publisher>
<cc:Agent>
<dc:title>Azadeh Afzar</dc:title>
</cc:Agent>
</dc:publisher>
<dc:source>OpenMoji</dc:source>
</cc:Work>
<cc:License rdf:about="http://creativecommons.org/licenses/by-nc-sa/4.0/">
<cc:permits rdf:resource="http://creativecommons.org/ns#Reproduction"/>
<cc:permits rdf:resource="http://creativecommons.org/ns#Distribution"/>
<cc:requires rdf:resource="http://creativecommons.org/ns#Notice"/>
<cc:requires rdf:resource="http://creativecommons.org/ns#Attribution"/>
<cc:prohibits rdf:resource="http://creativecommons.org/ns#CommercialUse"/>
<cc:permits rdf:resource="http://creativecommons.org/ns#DerivativeWorks"/>
<cc:requires rdf:resource="http://creativecommons.org/ns#ShareAlike"/>
</cc:License>
</rdf:RDF>
</metadata>
<g transform="translate(-68.817 16.149)">
<g transform="matrix(2.0047 0 0 2.0047 -63.847 -89.535)">
<g transform="translate(0 -1.3339)">
<g transform="matrix(.26458 0 0 .26458 75.775 49.185)">
<circle cx="35.034" cy="36.051" r="23" fill="#fcea2b"/>
<path d="m25.533 27.489c-1.2653-3.3541-6.441-3.5687-6.1168 1.3178 0.0431 0.6485 0.281 1.2724 0.6414 1.8135l5.3179 6.4224 5.2212-6.266c0.5796-0.6964 0.9224-1.5779 0.905-2.4853-0.0863-4.3523-5.0509-4.0351-6.1274-0.8036" fill="#d22f27"/>
<path d="m44.835 27.489c-1.2547-3.3541-6.3873-3.5687-6.0658 1.3178 0.0428 0.6485 0.2787 1.2724 0.6361 1.8135l5.2737 6.4224 5.1777-6.266c0.5747-0.6964 0.9147-1.5779 0.8974-2.4853-0.0856-4.3523-5.0089-4.0351-6.0763-0.8036" fill="#d22f27"/>
<polygon points="40.572 44.181 22.558 43.423 24.905 50.12 30.624 52.777 39.103 52.777 44.576 50.12 46.692 47.272 47.39 43.423" fill="#fff"/>
<g fill="none" stroke="#000" stroke-linecap="round" stroke-linejoin="round" stroke-miterlimit="10" stroke-width="2">
<path d="m47.145 44.598"/>
<path d="m22.968 44.598"/>
<circle cx="35.034" cy="36.051" r="23"/>
<path d="m22.558 42.724s12.758 3.0979 24.894 0.0669"/>
<path d="m47.62 42.724c0 5.6296-4.1784 10.105-12.554 10.105-8.3738 0-12.607-4.4888-12.607-10.105"/>
<path d="m25.533 27.489c-1.2653-3.3541-6.441-3.5687-6.1168 1.3178 0.0431 0.6485 0.281 1.2724 0.6414 1.8135l5.3179 6.4224 5.2212-6.266c0.5796-0.6964 0.9224-1.5779 0.905-2.4853-0.0863-4.3523-5.0509-4.0351-6.1274-0.8036"/>
<path d="m44.835 27.489c-1.2547-3.3541-6.3873-3.5687-6.0658 1.3178 0.0428 0.6485 0.2787 1.2724 0.6361 1.8135l5.2737 6.4224 5.1777-6.266c0.5747-0.6964 0.9147-1.5779 0.8974-2.4853-0.0856-4.3523-5.0089-4.0351-6.0763-0.8036"/>
</g>
</g>
<g transform="matrix(.26458 0 0 .26458 97.867 38.332)">
<clipPath id="b">
<use width="100%" height="100%" overflow="visible" xlink:href="#d"/>
</clipPath>
<clipPath id="a" clip-path="url(#b)">
<use width="100%" height="100%" overflow="visible" xlink:href="#c"/>
</clipPath>
<rect x="8.6371" y="8.0565" width="55.25" height="56" clip-path="url(#a)" fill="#fcea2b"/>
<circle cx="35.887" cy="36.056" r="23" fill="#fcea2b"/>
<path d="m45.331 38.564c3.9628 0 7.1782-2.8618 7.1782-6.3889 0-1.7646 0.4473-3.5291-0.8519-4.6852s-4.3449-1.7037-6.3264-1.7037c-2.3567 0-5.1428 0.1434-6.4514 1.7037-0.8933 1.0652-0.7268 3.2534-0.7268 4.6852 1e-4 3.5271 3.2128 6.3889 7.1783 6.3889z" fill="#3f3f3f"/>
<path d="m25.738 38.564c3.9628 0 7.1782-2.8618 7.1782-6.3889 0-1.7646 0.4473-3.5291-0.8519-4.6852s-4.3449-1.7037-6.3264-1.7037c-2.3567 0-5.1428 0.1434-6.4514 1.7037-0.8933 1.0652-0.7268 3.2534-0.7268 4.6852 1e-4 3.5271 3.2128 6.3889 7.1783 6.3889z" fill="#3f3f3f"/>
<path d="m33.816 35.632" fill="#9b9b9a" stroke="#9b9b9a" stroke-miterlimit="10" stroke-width="2"/>
<g fill="none" stroke="#000" stroke-linecap="round" stroke-linejoin="round" stroke-miterlimit="10" stroke-width="2">
<circle cx="35.887" cy="36.056" r="23"/>
<path d="m45.702 44.862c-6.574 3.5248-14.045 3.6576-19.63 0"/>
<path d="m18.883 30.464s-0.953 8.5508 6.8608 7.9185c2.6197-0.212 7.8164-0.6507 7.867-8.3427 0.0046-0.6979-0.0078-1.5989-0.8108-2.6298-1.0647-1.3669-3.5716-1.9711-9.9446-1.422 1e-4 1e-4 -3.4462-0.099-3.9724 4.476z"/>
<polyline points="18.953 29.931 18.52 26.559 22.353 26.032"/>
<path d="m52.741 30.464s0.953 8.5508-6.8608 7.9185c-2.6197-0.212-7.8164-0.6507-7.867-8.3427-0.0046-0.6979 0.0078-1.5989 0.8108-2.6298 1.0647-1.3669 3.5716-1.9711 9.9446-1.422 0 1e-4 3.4463-0.099 3.9724 4.476z"/>
<path d="m31.505 26.416s4.1241 2.5339 8.6569 0"/>
<path d="m38.014 30.04"/>
<path d="m33.61 30.04"/>
<path d="m33.536 31.318s2.2019-3.7509 4.5362 0"/>
<polyline points="52.664 29.933 53.097 26.562 49.264 26.034"/>
<path d="m33.955 30.027s1.7954-3.7509 3.6988 0"/>
</g>
</g>
<g transform="matrix(.26458 0 0 .26458 67.864 38.114)">
<circle cx="35.782" cy="36.8" r="23.928" fill="#fcea2b"/>
<path d="m50.46 43.15c0 1.59-0.29 3.11-0.87 4.49-12.49 3.03-25.43 0.34-27.49-0.13-0.55-1.34-0.83-2.81-0.83-4.36h0.11s14.8 3.59 28.89 0.07z" fill="#fff"/>
<path d="m49.59 47.64c-1.79 4.27-6.35 7.23-13.69 7.23-7.41 0-12.03-3.03-13.8-7.36 2.06 0.4699 15 3.1599 27.49 0.13z" fill="#ea5a47"/>
<path d="m14.446 39.904c-1.8659 0.1575-5.6386 0.7325-7.7337 2.8276-0.6567 0.6547-1.0168 1.5262-1.0168 2.451 0 0.9268 0.3601 1.7984 1.0168 2.4552 1.3115 1.3114 3.5968 1.3114 4.9062 0 2.095-2.0951 2.6699-5.8679 2.8275-7.7338z" fill="#92d3f5"/>
<path d="m59.582 47.638c1.3094 1.3114 3.5947 1.3114 4.9062 0 0.6567-0.6568 1.0168-1.5283 1.0168-2.4552 0-0.9248-0.3601-1.7963-1.0168-2.451-2.095-2.0951-5.8678-2.67-7.7337-2.8276 0.1576 1.866 0.7325 5.6388 2.8275 7.7338z" fill="#92d3f5"/>
<path d="m34.682 29.837" fill="none" stroke="#000" stroke-linecap="round" stroke-linejoin="round" stroke-miterlimit="10" stroke-width="2"/>
<path d="m34.682 30.473" fill="none" stroke="#000" stroke-linecap="round" stroke-linejoin="round" stroke-miterlimit="10" stroke-width="2"/>
<path d="m58.629 34.141c-0.0064-0.0559-0.0131-0.1118-0.0199-0.1675-1.3934-11.369-11.083-20.173-22.828-20.173-11.622 0-21.245 8.7256-22.796 19.92-0.0148 0.1069-0.0386 0.3127-0.052 0.4201" fill="none" stroke="#000" stroke-linecap="round" stroke-linejoin="round" stroke-miterlimit="10" stroke-width="2"/>
<path d="m16.965 50.029c4.179 5.7684 11.149 9.771 18.817 9.771 7.6676 0 14.578-3.9186 18.757-9.6871" fill="none" stroke="#000" stroke-linecap="round" stroke-linejoin="round" stroke-miterlimit="10" stroke-width="2"/>
<path d="m31.576 36.994c-0.3672 0-0.7207-0.2032-0.8965-0.5528-0.0098-0.0195-1.2129-2.3222-3.418-2.3222-2.2305 0-3.4062 2.2988-3.418 2.3222-0.2461 0.4942-0.8457 0.6934-1.3418 0.4473-0.4941-0.2481-0.6933-0.8477-0.4472-1.3418 0.0703-0.1406 1.7539-3.4277 5.207-3.4277s5.1367 3.2871 5.207 3.4277c0.2481 0.4941 0.0469 1.0937-0.4472 1.3418-0.1426 0.0703-0.2969 0.1055-0.4453 0.1055z"/>
<path d="m48.826 36.994c-0.3672 0-0.7207-0.2032-0.8965-0.5528-0.0098-0.0195-1.2129-2.3222-3.418-2.3222-2.2305 0-3.4062 2.2988-3.418 2.3222-0.2461 0.4942-0.8457 0.6934-1.3418 0.4473-0.4941-0.2481-0.6933-0.8477-0.4472-1.3418 0.0703-0.1406 1.7539-3.4277 5.207-3.4277s5.1367 3.2871 5.207 3.4277c0.2481 0.4941 0.0469 1.0937-0.4472 1.3418-0.1426 0.0703-0.2969 0.1055-0.4453 0.1055z"/>
<path d="m9.165 50.75c-1.4854 0-2.8827-0.5791-3.9344-1.6307-1.0516-1.0516-1.6306-2.449-1.6306-3.9364 0-1.4854 0.579-2.8827 1.6306-3.9323 3.4618-3.4618 10.044-3.5006 10.322-3.5006 0.579 0 1.0475 0.4686 1.0475 1.0475 0 0.2782-0.0388 6.86-3.5006 10.322-1.0496 1.0517-2.447 1.6307-3.9344 1.6307zm5.2806-10.846c-1.8659 0.1575-5.6386 0.7325-7.7337 2.8276-0.6567 0.6547-1.0168 1.5262-1.0168 2.451 0 0.9268 0.3601 1.7984 1.0168 2.4552 1.3115 1.3114 3.5968 1.3114 4.9062 0 2.095-2.0951 2.6699-5.8679 2.8275-7.7338z"/>
<path d="m58.101 49.119c-3.4618-3.4617-3.5006-10.044-3.5006-10.322 0-0.579 0.4686-1.0475 1.0475-1.0475 0.2783 0 6.8601 0.0389 10.322 3.5006 1.0516 1.0496 1.6306 2.4469 1.6306 3.9322 0 1.4874-0.579 2.8848-1.6306 3.9364-1.0517 1.0516-2.449 1.6307-3.9344 1.6307-1.4874 0-2.8848-0.579-3.9344-1.6307zm1.4813-1.4812c1.3094 1.3114 3.5947 1.3114 4.9062 0 0.6567-0.6568 1.0168-1.5283 1.0168-2.4552 0-0.9248-0.3601-1.7963-1.0168-2.451-2.095-2.0951-5.8678-2.67-7.7337-2.8276 0.1576 1.866 0.7325 5.6388 2.8275 7.7338z"/>
<path d="m20.124 29c0.7207-1.3857 1.9278-2.4541 3.3907-3 1.4052-0.7002 3.0205-0.8486 4.5302-0.4209" fill="none" stroke="#000" stroke-linecap="round" stroke-linejoin="round" stroke-miterlimit="10" stroke-width="2"/>
<path d="m50.735 29c-1.582-2.7724-4.8037-4.1699-7.9092-3.4306" fill="none" stroke="#000" stroke-linecap="round" stroke-linejoin="round" stroke-miterlimit="10" stroke-width="2"/>
<path d="m50.46 43.15c0 1.59-0.29 3.11-0.87 4.49-12.49 3.03-25.43 0.34-27.49-0.13-0.55-1.34-0.83-2.81-0.83-4.36h0.11s14.8 3.59 28.89 0.07z" fill="none" stroke="#000" stroke-linecap="round" stroke-linejoin="round" stroke-miterlimit="10" stroke-width="2"/>
<path d="m49.59 47.64c-1.79 4.27-6.35 7.23-13.69 7.23-7.41 0-12.03-3.03-13.8-7.36 2.06 0.4699 15 3.1599 27.49 0.13z" fill="none" stroke="#000" stroke-linecap="round" stroke-linejoin="round" stroke-miterlimit="10" stroke-width="2"/>
</g>
<g transform="matrix(.26458 0 0 .26458 83.663 37.469)">
<path d="m34.109 61c12.702 0 23-10.165 23-22.703 0-5.6768-2.1107-10.867-5.5995-14.847-0.0837-0.0955-0.1683-0.1904-0.2536-0.2845-1.2483-1.3773-2.6643-2.6032-4.2165-3.6466-3.6847-2.4769-8.1363-3.9248-12.93-3.9248-12.703 0-23 10.164-23 22.703 0 12.538 10.297 22.703 23 22.703z" fill="#fcea2b"/>
<path d="m34.109 61c12.702 0 23-10.165 23-22.703 0-5.6768-2.1107-10.867-5.5995-14.847-0.0837-0.0955-0.1683-0.1904-0.2536-0.2845-1.2483-1.3773-2.6643-2.6032-4.2165-3.6466-3.6847-2.4769-8.1363-3.9248-12.93-3.9248-12.703 0-23 10.164-23 22.703 0 12.538 10.297 22.703 23 22.703z" fill="none" stroke="#fcea2b" stroke-miterlimit="10" stroke-width="1.8"/>
<path d="m43.924 47.4c-5.8513 4.7083-14.1 4.6878-19.63 0" fill="none" stroke="#000" stroke-linecap="round" stroke-linejoin="round" stroke-miterlimit="10" stroke-width="2"/>
<path d="m29.993 36.787c-0.3672 0-0.7207-0.2032-0.8965-0.5528-0.0098-0.0195-1.2129-2.3222-3.418-2.3222-2.2305 0-3.4062 2.2988-3.418 2.3222-0.2461 0.4942-0.8457 0.6934-1.3418 0.4473-0.4941-0.2481-0.6933-0.8477-0.4472-1.3418 0.0703-0.1406 1.7539-3.4277 5.207-3.4277s5.1367 3.2871 5.207 3.4277c0.2481 0.4941 0.0469 1.0937-0.4472 1.3418-0.1426 0.0704-0.2969 0.1055-0.4453 0.1055z"/>
<path d="m47.243 36.787c-0.3672 0-0.7207-0.2032-0.8965-0.5528-0.0098-0.0195-1.2129-2.3222-3.418-2.3222-2.2305 0-3.4062 2.2988-3.418 2.3222-0.2461 0.4942-0.8457 0.6934-1.3418 0.4473-0.4941-0.2481-0.6933-0.8477-0.4472-1.3418 0.0703-0.1406 1.7539-3.4277 5.207-3.4277s5.1367 3.2871 5.207 3.4277c0.2481 0.4941 0.0469 1.0937-0.4472 1.3418-0.1426 0.0704-0.2969 0.1055-0.4453 0.1055z"/>
<path d="m45.88 18.664c-3.4345-2.0487-7.4493-3.2257-11.739-3.2257-4.2227 0-8.179 1.1403-11.578 3.1299" fill="none" stroke="#000" stroke-linecap="round" stroke-linejoin="round" stroke-miterlimit="10" stroke-width="2"/>
<path d="m15.821 24.564c-2.9048 3.8443-4.6276 8.6317-4.6276 13.822-1e-4 12.674 10.273 22.948 22.948 22.948 12.674 1e-4 22.948-10.274 22.948-22.948 0-5.2484-1.7617-10.085-4.7262-13.951" fill="none" stroke="#000" stroke-linecap="round" stroke-linejoin="round" stroke-miterlimit="10" stroke-width="2"/>
<ellipse cx="34" cy="17" rx="25" ry="5.2885" fill="none" stroke="#000" stroke-miterlimit="10" stroke-width="2"/>
<ellipse cx="34" cy="17" rx="25" ry="5.2885" fill="none" stroke="#61b2e4" stroke-miterlimit="10" stroke-width="2.1"/>
</g>
<g transform="matrix(.26458 0 0 .26458 90.094 49.082)">
<circle cx="37.03" cy="36.4" r="22.569" fill="#fcea2b"/>
<path d="m53.698 44.439c-1.9101-0.5703-3.9277 0.5201-4.498 2.4301-0.1899 0.6362-0.2018 1.3099-0.0342 1.948l0.111 0.3522 3.797 9.7215 8.5568-6.0862c0.6097-0.4613 1.0532-1.1008 1.275-1.8435 0.5703-1.91-0.5199-3.9283-2.4306-4.4987-1.3381-0.3995-2.7576-0.0041-3.7038 1.0317-0.0808 0.0887-0.2057 0.1237-0.3214 0.0892-0.1151-0.0344-0.2004-0.1321-0.2199-0.2508-0.2229-1.3849-1.1932-2.4938-2.5319-2.8935z" fill="#d22f27"/>
<path d="m49.549 47.429" fill="none" stroke="#000" stroke-linecap="round" stroke-linejoin="round" stroke-miterlimit="10" stroke-width="2"/>
<path d="m21.275 30.056c0.4075-1.5078 1.358-2.8098 2.6702-3.656 1.2228-0.9847 2.769-1.4753 4.3352-1.3805" fill="none" stroke="#000" stroke-linecap="round" stroke-linejoin="round" stroke-miterlimit="10" stroke-width="2"/>
<path d="m51.744 31.12c-2.2698-2.2443-5.7488-2.7231-8.5407-1.1752" fill="none" stroke="#000" stroke-linecap="round" stroke-linejoin="round" stroke-miterlimit="10" stroke-width="2"/>
<path d="m47.728 35.911c-0.8065-0.4709-1.7748-0.9088-2.8803-0.9263-1.1197-0.0177-2.1249 0.3098-3.1914 0.7782" fill="none" stroke="#000" stroke-linecap="round" stroke-linejoin="round" stroke-miterlimit="10" stroke-width="2"/>
<path d="m59.056 41.412c0.4107-1.7201 0.6282-3.5153 0.6282-5.3612 0-12.703-10.298-23-23-23-12.703 0-23 10.297-23 23 0 12.702 10.297 23 23 23 3.6206 0 7.0459-0.8367 10.093-2.3272" fill="none" stroke="#000" stroke-linecap="round" stroke-linejoin="round" stroke-miterlimit="10" stroke-width="2"/>
<circle cx="28.724" cy="35.357" r="2.5549"/>
<path d="m37.099 42.142s10.525 3.1956 0 5.5637c0 0 10.458 2.9883 0 4.9125" fill="none" stroke="#000" stroke-linecap="round" stroke-linejoin="round" stroke-miterlimit="10" stroke-width="2"/>
<path d="m52.838 59.681c-0.0922-0.0275-0.1669-0.0965-0.2021-0.1863l-3.9508-10.116-0.1223-0.387c-0.2011-0.7638-0.1868-1.5548 0.036-2.301 0.6693-2.2418 3.0375-3.521 5.2787-2.8519 1.3869 0.4141 2.4365 1.4756 2.8438 2.836 1.087-0.9142 2.5469-1.2265 3.9332-0.8126 2.2424 0.6695 3.5216 3.0377 2.8523 5.2795-0.2602 0.8716-0.781 1.622-1.5054 2.1699l-8.8916 6.3252c-0.0787 0.0557-0.179 0.0724-0.2718 0.0447zm0.86-15.242c-1.9101-0.5703-3.9277 0.5201-4.498 2.4301-0.1899 0.6362-0.2018 1.3099-0.0342 1.948l0.111 0.3522 3.797 9.7215 8.5568-6.0862c0.6097-0.4613 1.0532-1.1008 1.275-1.8435 0.5703-1.91-0.5199-3.9283-2.4306-4.4987-1.3381-0.3995-2.7576-0.0041-3.7038 1.0317-0.0808 0.0887-0.2057 0.1237-0.3214 0.0892-0.1151-0.0344-0.2004-0.1321-0.2199-0.2508-0.2229-1.3849-1.1932-2.4938-2.5319-2.8935z" fill="none" stroke="#000" stroke-miterlimit="10"/>
</g>
</g>
<g transform="matrix(1.9426 0 0 1.9426 -27.201 -11.684)">
<g transform="matrix(.85101 0 0 .85101 28.652 27.699)">
<g transform="matrix(.35278 0 0 -.35278 33.489 16.876)">
<path d="m0 0h-4v-7h4" fill="none" stroke="#000" stroke-linecap="round" stroke-linejoin="round" stroke-miterlimit="10" stroke-width="2"/>
</g>
<g transform="matrix(.35278 0 0 -.35278 32.078 18.111)">
<path d="m0 0h3" fill="none" stroke="#000" stroke-linecap="round" stroke-linejoin="round" stroke-miterlimit="10" stroke-width="2"/>
</g>
</g>
</g>
<g transform="matrix(1.6509 0 0 1.6509 59.026 42.171)">
<g transform="matrix(.35278 0 0 -.35278 21.495 19.345)">
<path d="m0 0-3 7-3-7" fill="none" stroke="#000" stroke-linecap="round" stroke-linejoin="round" stroke-miterlimit="10" stroke-width="2"/>
</g>
<g transform="matrix(.35278 0 0 -.35278 19.731 18.754)">
<path d="m0 0h4" fill="none" stroke="#000" stroke-linecap="round" stroke-linejoin="round" stroke-miterlimit="10" stroke-width="2"/>
</g>
</g>
<g transform="matrix(1.648 0 0 1.648 40.818 42.226)">
<g transform="matrix(.35278 0 0 -.35278 40.545 16.876)">
<path d="m0 0v-7" fill="none" stroke="#000" stroke-linecap="round" stroke-linejoin="round" stroke-miterlimit="10" stroke-width="2"/>
</g>
<g transform="matrix(.35278 0 0 -.35278 41.956 16.876)">
<path d="m0 0v-7" fill="none" stroke="#000" stroke-linecap="round" stroke-linejoin="round" stroke-miterlimit="10" stroke-width="2"/>
</g>
<path d="m41.956 18.106h-1.4111" fill="none" stroke="#000" stroke-linecap="round" stroke-linejoin="round" stroke-miterlimit="10" stroke-width=".70556"/>
</g>
<g transform="matrix(.58141 0 0 -.58141 75.938 74.108)">
<path d="m0 0v7l5-7v7" fill="none" stroke="#000" stroke-linecap="round" stroke-linejoin="round" stroke-miterlimit="10" stroke-width="2"/>
</g>
<g transform="matrix(.58322 0 0 -.58322 88.15 70.4)">
<path d="m0 0c-0.441 0.392-1.022 0.629-1.659 0.629-1.38 0-2.5-1.119-2.5-2.5v-2c0-1.38 1.12-2.5 2.5-2.5 1.381 0 2.5 1.12 2.5 2.5v1.014h-2" fill="none" stroke="#000" stroke-linecap="round" stroke-linejoin="round" stroke-miterlimit="10" stroke-width="2"/>
</g>
<g transform="matrix(1.6506 0 0 1.6506 -26.639 34.574)">
<g transform="matrix(.35278 0 0 -.35278 75.126 23.951)">
<path d="m0 0v7h2.669c0.963 0 1.744-0.781 1.744-1.744s-0.781-1.743-1.744-1.743h-2.669" fill="none" stroke="#000" stroke-linecap="round" stroke-linejoin="round" stroke-miterlimit="10" stroke-width="2"/>
</g>
<g transform="matrix(.35278 0 0 -.35278 76.072 22.712)">
<path d="m0 0 1.517-3.513" fill="none" stroke="#000" stroke-linecap="round" stroke-linejoin="round" stroke-miterlimit="10" stroke-width="2"/>
</g>
</g>
<g transform="matrix(1.9426 0 0 1.9426 -6.0344 -11.684)">
<g transform="matrix(.85101 0 0 .85101 28.652 27.699)">
<g transform="matrix(.35278 0 0 -.35278 33.489 16.876)">
<path d="m0 0h-4v-7h4" fill="none" stroke="#000" stroke-linecap="round" stroke-linejoin="round" stroke-miterlimit="10" stroke-width="2"/>
</g>
<g transform="matrix(.35278 0 0 -.35278 32.078 18.111)">
<path d="m0 0h3" fill="none" stroke="#000" stroke-linecap="round" stroke-linejoin="round" stroke-miterlimit="10" stroke-width="2"/>
</g>
</g>
</g>
<g transform="matrix(.58232 0 0 -.58232 88.53 83.26)">
<path d="m0 0v7l-3-6-3 6v-7" fill="none" stroke="#000" stroke-linecap="round" stroke-linejoin="round" stroke-miterlimit="10" stroke-width="2"/>
</g>
<g transform="matrix(.58322 0 0 -.58322 92.763 83.26)">
<path d="m0 0v0c-1.38 0-2.5 1.119-2.5 2.5v2c0 1.381 1.12 2.5 2.5 2.5 1.381 0 2.5-1.119 2.5-2.5v-2c0-1.381-1.119-2.5-2.5-2.5z" fill="none" stroke="#000" stroke-linecap="round" stroke-linejoin="round" stroke-miterlimit="10" stroke-width="2"/>
</g>
<g transform="matrix(.5823 0 0 -.5823 98.924 78.981)">
<path d="m0 0v-4.5c0-1.381-1.119-2.5-2.5-2.5-0.643 0-1.229 0.243-1.673 0.642" fill="none" stroke="#000" stroke-linecap="round" stroke-linejoin="round" stroke-miterlimit="10" stroke-width="2"/>
</g>
<g transform="matrix(1.9426 0 0 1.9426 -28.635 -2.5312)">
<g transform="matrix(.85101 0 0 .85101 28.652 27.699)">
<g transform="matrix(.35278 0 0 -.35278 33.489 16.876)">
<path d="m0 0h-4v-7h4" fill="none" stroke="#000" stroke-linecap="round" stroke-linejoin="round" stroke-miterlimit="10" stroke-width="2"/>
</g>
<g transform="matrix(.35278 0 0 -.35278 32.078 18.111)">
<path d="m0 0h3" fill="none" stroke="#000" stroke-linecap="round" stroke-linejoin="round" stroke-miterlimit="10" stroke-width="2"/>
</g>
</g>
</g>
<path d="m101.76 78.956v4.3044" fill="none" stroke="#000" stroke-linecap="round" stroke-linejoin="round" stroke-miterlimit="10" stroke-width=".93151"/>
</g>
</g>
</svg>

